<?xml version="1.0" encoding="UTF-8"?>
<svg id="Capa_1" data-name="Capa 1" xmlns="http://www.w3.org/2000/svg" viewBox="0 0 1000 1000">
  <defs>
    <style>
      .cls-1 {
        fill: #1683ab;
        stroke-width: 0px;
      }
    </style>
  </defs>
  <g>
    <path class="cls-1" d="m520.57,236.84c25.37,39.04,88.83,125.26,150.16,117.59,5.98-.75,10.35,5.88,8.6,12.88-15.78,63.09-84.61,298.71-250.79,385.89-6.48,3.4-13.06-3-11.62-11.21l87.95-499.85c1.59-9.02,11.18-12.25,15.69-5.31Z"/>
    <path class="cls-1" d="m503.59,70.06c10.11,0,19.46,5.38,25.64,14.77,19.49,29.57,50.53,72.7,87.7,110.22,44.78,45.2,87.4,71.18,126.68,77.22,8.89,1.37,16.74,6.74,22.11,15.14,7.15,11.17,9,26.27,4.94,40.4-21.15,73.7-59.36,184.54-121.27,294.09-75.68,133.92-166.12,229.27-268.79,283.39-4.73,2.49-9.65,3.76-14.63,3.76-8.32,0-16.2-3.64-22.2-10.24-78.03-85.92-130.49-206.42-155.91-358.12-20.8-124.1-18.87-241.33-13.6-317.82.83-12,5.47-23.14,13.06-31.37,7.24-7.84,16.32-12.16,25.58-12.16,1.92,0,3.86.19,5.75.57,8.54,1.69,17.68,2.55,27.17,2.55,83.92,0,185.33-66.13,238.32-105.55,6.01-4.47,12.74-6.84,19.45-6.84m0-6c-7.78,0-15.77,2.62-23.04,8.02-50.69,37.71-151.98,104.36-234.74,104.36-8.91,0-17.6-.77-26-2.44-2.32-.46-4.63-.68-6.92-.68-22.39,0-42.69,21.21-44.62,49.12-9.94,144.14-10.64,480.33,171.05,680.39,7.29,8.03,16.8,12.2,26.64,12.2,5.82,0,11.76-1.46,17.43-4.45,239.07-126.03,353.17-442.25,393.03-581.13,8.51-29.64-6.75-59.25-31.91-63.12-87.02-13.38-171.76-126.38-210.28-184.81-7.55-11.45-18.86-17.47-30.65-17.47h0Z"/>
  </g>
  <g>
    <path class="cls-1" d="m839.39,588.06c9.1,14.01,31.87,44.94,53.87,42.19,2.15-.27,3.71,2.11,3.09,4.62-5.66,22.64-30.36,107.16-89.97,138.44-2.32,1.22-4.69-1.08-4.17-4.02l31.55-179.32c.57-3.24,4.01-4.4,5.63-1.9Z"/>
    <path class="cls-1" d="m833.3,532.07c2.34,0,4.47,1.27,5.99,3.57,15.53,23.56,46.52,63.85,79.54,68.93,2.67.41,4.34,2.24,5.28,3.7,1.98,3.09,2.47,7.34,1.31,11.36-7.53,26.24-21.13,65.7-43.16,104.67-26.78,47.39-58.7,81.09-94.87,100.16-1.14.6-2.3.9-3.46.9-1.91,0-3.68-.83-5.12-2.41-27.49-30.27-45.99-72.84-54.99-126.53-7.4-44.15-6.71-85.88-4.83-113.12.5-7.2,5.58-12.03,10.02-12.03.44,0,.88.04,1.32.13,3.31.66,6.84.99,10.49.99,31.22,0,68.4-24.2,87.79-38.63,1.49-1.11,3.11-1.69,4.68-1.69m0-6c-2.79,0-5.66.94-8.26,2.88-18.18,13.53-54.52,37.44-84.21,37.44-3.2,0-6.31-.28-9.33-.87-.83-.16-1.66-.24-2.48-.24-8.03,0-15.32,7.61-16.01,17.62-3.57,51.71-3.82,172.32,61.36,244.09,2.61,2.88,6.03,4.38,9.56,4.38,2.09,0,4.22-.52,6.25-1.6,85.77-45.21,126.7-158.66,141-208.48,3.05-10.63-2.42-21.26-11.45-22.64-31.22-4.8-61.62-45.34-75.44-66.3-2.71-4.11-6.77-6.27-11-6.27h0Z"/>
  </g>
  <g>
    <path class="cls-1" d="m612.55,823.24c4.58,7.05,16.04,22.62,27.12,21.24,1.08-.13,1.87,1.06,1.55,2.33-2.85,11.39-15.28,53.95-45.29,69.69-1.17.61-2.36-.54-2.1-2.02l15.88-90.27c.29-1.63,2.02-2.21,2.83-.96Z"/>
    <path class="cls-1" d="m609.48,798.04c.14,0,.34.18.53.46,8.09,12.27,24.31,33.27,42.07,36,.26.04.51.38.6.53.42.65.72,1.86.31,3.29-6.65,23.19-26.6,79.47-68.01,101.3-.13.07-.26.11-.35.11-.13,0-.29-.15-.37-.24-31.47-34.65-31.01-94.37-29.35-118.43.15-2.17,1.52-3.28,2.07-3.28.03,0,.05,0,.08,0,1.86.37,3.83.55,5.86.55,16.57,0,35.92-12.55,45.97-20.03.26-.19.47-.26.58-.26m0-6c-1.41,0-2.85.47-4.16,1.45-9.15,6.81-27.45,18.85-42.39,18.85-1.61,0-3.18-.14-4.7-.44-.42-.08-.84-.12-1.25-.12-4.04,0-7.71,3.83-8.06,8.87-1.8,26.03-1.92,86.75,30.89,122.88,1.32,1.45,3.03,2.2,4.81,2.2,1.05,0,2.12-.26,3.15-.8,43.18-22.76,63.78-79.87,70.98-104.95,1.54-5.35-1.22-10.7-5.76-11.4-15.72-2.42-31.02-22.82-37.98-33.38-1.36-2.07-3.41-3.15-5.54-3.15h0Z"/>
  </g>
</svg>