<?xml version="1.0" encoding="UTF-8"?>
<svg id="Capa_1" data-name="Capa 1" xmlns="http://www.w3.org/2000/svg" viewBox="0 0 1000 1000">
  <defs>
    <style>
      .cls-1 {
        fill: #1683ab;
        stroke-width: 0px;
      }
    </style>
  </defs>
  <path class="cls-1" d="m549.45,236.24c38.57,34.05,132.65,107.97,204.41,89.79,7-1.77,13.62,4,13,11.19-5.59,64.87-38.35,308.85-218.81,423.52-7.04,4.47-16.26-.69-16.26-9.03V244.19c0-9.16,10.79-14.01,17.66-7.94Z"/>
  <path class="cls-1" d="m500,74.5c10.72,0,21.08,3.88,29.17,10.94,63.03,54.93,184.7,147.08,291.31,147.08,1.07,0,2.16,0,3.23-.03.28,0,.56,0,.84,0,13.05,0,25.44,5.57,33.99,15.29,8.46,9.61,12.21,21.89,10.58,34.59-5.84,45.5-14.43,91.5-25.53,136.74-15.06,61.41-34.44,119.84-57.59,173.68-28.51,66.3-62.94,126-102.35,177.44-46.13,60.23-99.86,110.12-159.7,148.3-7.16,4.57-15.45,6.98-23.95,6.98s-16.79-2.42-23.95-6.98c-59.83-38.17-113.56-88.07-159.7-148.3-39.41-51.45-73.84-111.15-102.35-177.44-23.15-53.84-42.53-112.27-57.59-173.68-11.1-45.24-19.68-91.25-25.53-136.74-1.63-12.7,2.13-24.98,10.59-34.59,8.55-9.72,20.94-15.29,33.99-15.29.28,0,.56,0,.84,0,1.07.02,2.15.03,3.22.03,106.61,0,228.27-92.15,291.31-147.08,8.09-7.05,18.45-10.94,29.17-10.94m0-6c-11.81,0-23.62,4.14-33.11,12.41-57.81,50.38-181.13,145.6-287.37,145.6-1.04,0-2.08,0-3.12-.03-.31,0-.63,0-.94,0-30.47,0-54.42,26.29-50.52,56.64,18.45,143.69,88.39,474.9,347.88,640.45,8.28,5.28,17.73,7.93,27.18,7.93s18.9-2.64,27.18-7.93c259.49-165.55,329.43-496.77,347.88-640.45,3.9-30.35-20.06-56.64-50.52-56.64-.31,0-.63,0-.94,0-1.03.02-2.08.03-3.12.03-106.24,0-229.55-95.22-287.37-145.6-9.5-8.28-21.3-12.41-33.11-12.41h0Z"/>
</svg>