<?xml version="1.0" encoding="UTF-8"?>
<svg id="Capa_1" data-name="Capa 1" xmlns="http://www.w3.org/2000/svg" viewBox="0 0 1000 1000">
  <defs>
    <style>
      .cls-1 {
        letter-spacing: -.07em;
      }

      .cls-2 {
        letter-spacing: -.04em;
      }

      .cls-3 {
        fill: none;
        stroke: #1683ab;
        stroke-miterlimit: 10;
        stroke-width: 6px;
      }

      .cls-4 {
        letter-spacing: -.04em;
      }

      .cls-5 {
        font-size: 99.48px;
      }

      .cls-5, .cls-6, .cls-7, .cls-8 {
        fill: #1683ab;
      }

      .cls-5, .cls-8 {
        font-family: Arial-BoldMT, Arial;
        font-weight: 700;
      }

      .cls-6 {
        stroke-width: 0px;
      }

      .cls-7 {
        font-family: ArialNarrow, Arial;
      }

      .cls-7, .cls-8 {
        font-size: 82.7px;
      }

      .cls-9 {
        letter-spacing: -.04em;
      }
    </style>
  </defs>
  <text class="cls-5" transform="translate(321.7 450.81)"><tspan x="0" y="0">DEFENSORÍ</tspan><tspan class="cls-9" x="580.34" y="0">A</tspan></text>
  <text class="cls-8" transform="translate(322.45 523.91) scale(1.03 1)"><tspan x="0" y="0">UNIVERSI</tspan><tspan class="cls-1" x="390.62" y="0">T</tspan><tspan x="435" y="0">ARI</tspan><tspan class="cls-4" x="577.43" y="0">A</tspan></text>
  <text class="cls-7" transform="translate(496.32 632.56) scale(1.08 1)"><tspan x="0" y="0">UNAMBA</tspan><tspan class="cls-2" x="244.84" y="0"></tspan></text>
  <g>
    <line class="cls-3" x1="936.6" y1="603.18" x2="827.96" y2="603.18"/>
    <polyline class="cls-3" points="477.88 603.18 477.13 603.18 370.74 603.18"/>
  </g>
  <g>
    <path class="cls-6" d="m165.35,397.82c12.82,11.31,44.07,35.87,67.92,29.83,2.32-.59,4.53,1.33,4.32,3.72-1.86,21.55-12.74,102.62-72.7,140.72-2.34,1.49-5.4-.23-5.4-3v-168.63c0-3.04,3.59-4.65,5.87-2.64Z"/>
    <path class="cls-6" d="m148.92,348.08c2.59,0,5.1.94,7.06,2.65,21.37,18.62,62.69,49.85,99.42,49.85.38,0,.76,0,1.14-.01h.21c3.19,0,6.2,1.35,8.29,3.72,2.04,2.32,2.94,5.28,2.55,8.34-3.22,25.06-10.57,63.11-27.32,102.07-20.39,47.42-49.17,83.23-85.54,106.44-1.73,1.11-3.74,1.69-5.8,1.69s-4.07-.59-5.8-1.69c-36.37-23.2-65.15-59.01-85.54-106.44-16.75-38.96-24.1-77.01-27.32-102.07-.39-3.06.51-6.02,2.55-8.34,2.08-2.36,5.1-3.72,8.28-3.72h.21c.38,0,.76.01,1.14.01,36.73,0,78.06-31.23,99.42-49.85,1.96-1.71,4.47-2.65,7.06-2.65m0-6c-3.92,0-7.85,1.37-11,4.12-19.21,16.74-60.18,48.38-95.48,48.38-.35,0-.69,0-1.04,0-.1,0-.21,0-.31,0-10.12,0-18.08,8.73-16.79,18.82,6.13,47.74,29.37,157.79,115.59,212.8,2.75,1.76,5.89,2.63,9.03,2.63s6.28-.88,9.03-2.63c86.22-55.01,109.46-165.06,115.59-212.8,1.29-10.09-6.66-18.82-16.79-18.82-.1,0-.21,0-.31,0-.34,0-.69,0-1.04,0-35.3,0-76.27-31.64-95.48-48.38-3.16-2.75-7.08-4.12-11-4.12h0Z"/>
  </g>
</svg>